Coordinates
version=1
nRows=19
nColumns=33
inDegrees=yes

Units are S.I. units (second, meters, Newtons, ...)
Angles are in degrees.

endheader
time	ground_thorax_rot_x	ground_thorax_rot_y	ground_thorax_rot_z	ground_thorax_tx	ground_thorax_ty	ground_thorax_tz	clav_prot_r	clav_elev_r	scapula_abduction_r	scapula_elevation_r	scapula_upward_rot_r	scapula_winging_r	shoulder_elv_r	plane_of_elev_r	axial_rot_r	elbow_flexion_r	pro_sup_r	wrist_flex_r	wrist_dev_r	clav_prot_l	clav_elev_l	scapula_abduction_l	scapula_elevation_l	scapula_upward_rot_l	scapula_winging_l	shoulder_elv_l	plane_of_elev_l	axial_rot_l	elbow_flexion_l	pro_sup_l	wrist_flex_l	wrist_dev_l
      6.68000000	    -39.79554275	     -9.08014338	      7.56865257	   -188.03482994	    848.85796057	    -11.53146039	      9.80956268	    -45.00000000	     33.45655298	    -45.00000000	    -45.00000000	   1701.69807360	  -2091.44455474	     29.20500321	     88.17365481	   1453.38228064	   -325.03658201	     18.02133801	      6.56473712	     15.03322194	     38.35709735	    -35.62420649	    -45.00000000	    -45.00000000	     83.02699235	  -2979.19827216	    141.33981482	    154.19475700	     11.87434096	     41.70812642	      6.96438426	    -22.17559410
      6.69000000	    -39.84342785	     -8.95102258	      7.44951799	   -187.48908663	    850.32446670	    -11.53933566	      9.79453265	    -45.00000000	     33.50890659	    -45.00000000	    -45.00000000	   1701.74785001	  -2091.26314980	     29.36136372	     87.74615282	   1453.55893978	   -324.08832360	     18.05938141	      6.48911040	     15.11170626	     38.33502855	    -35.83244038	    -45.00000000	    -45.00000000	     83.19974699	  -2979.07117908	    141.24054390	    154.33852315	     12.03277262	     42.25455324	      6.83153141	    -22.19228061
      6.70000000	    -39.88405379	     -8.86200151	      7.33174074	   -186.89658540	    851.94102023	    -11.53444641	      9.80489583	    -45.00000000	     33.59981994	    -45.00000000	    -45.00000000	   1701.76475640	  -2091.04065466	     29.50553257	     87.42478411	   1453.80314992	   -322.96891409	     18.10240096	      6.37877055	     15.09884343	     38.35859622	    -36.01795388	    -45.00000000	    -45.00000000	     83.29978479	  -2978.91933161	    141.23688742	    154.55069733	     12.20316012	     42.83655535	      6.72305828	    -22.23424113
      6.71000000	    -39.94152458	     -8.76151732	      7.20890377	   -186.25465832	    853.69891791	    -11.51723735	      9.77774724	    -45.00000000	     33.74479176	    -45.00000000	    -45.00000000	   1701.76113161	  -2090.86273340	     29.67689785	     86.91702331	   1453.97848528	   -321.83788207	     18.11235533	      6.24259877	     15.08238085	     38.34447897	    -36.20654182	    -45.00000000	    -45.00000000	     83.46489827	  -2978.73954088	    141.13589202	    154.79523342	     12.31374362	     43.36883230	      6.60846501	    -22.25872546
      6.72000000	    -39.97126506	     -8.61614654	      7.01462428	   -185.55374698	    855.60118194	    -11.48795270	      9.78448610	    -45.00000000	     33.95640443	    -45.00000000	    -45.00000000	   1701.76336657	  -2090.75840768	     29.87306250	     86.34724077	   1453.96568763	   -320.82731933	     18.05205528	      6.07134227	     15.03572731	     38.23435300	    -36.12031514	    -45.00000000	    -45.00000000	     83.59878953	  -2978.37052999	    140.66109581	    155.05900320	     12.21742744	     43.79948543	      6.49038979	    -22.19994687
      6.73000000	    -40.06974183	     -8.60529762	      6.99289011	   -184.78027692	    857.65074347	    -11.44631378	      9.83859556	    -45.00000000	     34.05424936	    -45.00000000	    -45.00000000	   1701.75098578	  -2090.48252258	     30.03446672	     86.00270522	   1454.29179789	   -319.61024592	     18.11350481	      5.98434994	     15.03759757	     38.30667381	    -36.52752157	    -45.00000000	    -45.00000000	     83.77429596	  -2978.32308188	    140.93265950	    155.34434862	     12.47525559	     44.25297185	      6.41599779	    -22.28954271
      6.74000000	    -40.12171978	     -8.47077513	      6.82320094	   -183.92338510	    859.83901379	    -11.39185875	      9.75898965	    -45.00000000	     34.27699583	    -45.00000000	    -44.99524687	   1701.83644677	  -2090.29824593	     30.22661568	     85.37778381	   1454.34474930	   -318.46728421	     18.07167294	      5.81217831	     14.89263064	     38.13752211	    -36.53787432	    -45.00000000	    -45.00000000	     83.90398879	  -2977.98047598	    140.52512283	    155.75326773	     12.42101253	     44.64670272	      6.27489445	    -22.23156467
      6.75000000	    -40.22578463	     -8.38322514	      6.72622461	   -182.96682140	    862.16755125	    -11.32208301	      9.90077214	    -45.00000000	     34.41528266	    -45.00000000	    -44.89305245	   1701.69802649	  -2090.01972338	     30.47068330	     84.91499119	   1454.71409767	   -317.09418586	     18.10521588	      5.67159972	     15.11949129	     38.34011342	    -37.02512816	    -45.00000000	    -45.00000000	     84.16445206	  -2977.92792031	    140.73968192	    155.99353987	     12.65979095	     45.10569417	      6.21420160	    -22.32697969
      6.76000000	    -40.28366324	     -8.24035410	      6.52466048	   -181.90254486	    864.61801340	    -11.23455316	      9.81810912	    -45.00000000	     34.68770622	    -45.00000000	    -44.32253262	   1701.64724219	  -2089.76381725	     30.57092659	     84.56093472	   1454.96925990	   -315.71589993	     18.08741486	      5.48321725	     14.89815117	     38.26038294	    -37.18954259	    -45.00000000	    -45.00000000	     84.26772569	  -2977.63758615	    140.61217851	    156.64376077	     12.79108488	     45.51447080	      6.05386911	    -22.31521337
      6.77000000	    -40.34750027	     -8.03702166	      6.29891947	   -180.72834228	    867.18041609	    -11.11793994	      9.78662618	    -45.00000000	     34.98296662	    -45.00000000	    -43.70264696	   1701.59689395	  -2089.51824886	     30.65548440	     84.31507191	   1455.17839245	   -314.33528074	     18.06047627	      5.31730060	     14.92214098	     38.24777633	    -37.44387699	    -45.00000000	    -45.00000000	     84.43535653	  -2977.37846889	    140.40658782	    157.20412482	     12.87450521	     45.93465008	      5.95423674	    -22.33709432
      6.78000000	    -40.40933593	     -7.76265864	      5.99360048	   -179.43908412	    869.82610989	    -10.97204894	      9.81711300	    -45.00000000	     35.30869098	    -45.00000000	    -42.86690505	   1701.46309728	  -2089.29742270	     30.83051313	     84.10179782	   1455.49154843	   -312.81892740	     18.03313612	      5.12888824	     15.06465696	     38.36625379	    -37.82396293	    -45.00000000	    -45.00000000	     84.60574990	  -2977.15682217	    140.29200452	    157.75951530	     12.98098509	     46.40902369	      5.87683260	    -22.38798094
      6.79000000	    -40.47283532	     -7.58859565	      5.77551626	   -178.03133315	    872.52374201	    -10.79798522	      9.78491193	    -45.00000000	     35.65863313	    -45.00000000	    -42.06191689	   1701.38373143	  -2089.04442131	     30.91801836	     83.93516768	   1455.75267860	   -311.31702723	     17.98739529	      4.93714677	     14.92332573	     38.32058457	    -38.07227172	    -45.00000000	    -45.00000000	     84.76506475	  -2976.87044163	    140.13445154	    158.44541380	     13.09542803	     46.85500002	      5.72768061	    -22.38401866
      6.80000000	    -40.54349718	     -7.17613036	      5.32122042	   -176.49591931	    875.23124977	    -10.60776347	      9.91991423	    -45.00000000	     36.20717573	    -45.00000000	    -40.51119826	   1701.17871321	  -2089.04193218	     30.95875493	     84.10941991	   1456.01986709	   -308.89367002	     17.96159657	      4.81195712	     15.82884993	     38.57468686	    -38.60057974	    -45.00000000	    -45.00000000	     85.10242103	  -2976.71724858	    139.83738758	    158.64455597	     13.16772015	     47.61057657	      5.61384005	    -22.36575674
      6.81000000	    -40.58043839	     -6.94885061	      5.08184653	   -174.82504399	    877.92359846	    -10.40514235	      9.91949520	    -45.00000000	     36.58534006	    -45.00000000	    -39.54356637	   1701.06305609	  -2088.78068312	     31.06108656	     83.95613575	   1456.29853006	   -306.76878330	     17.88599834	      4.61734155	     15.77855823	     38.58163465	    -38.87474202	    -45.00000000	    -45.00000000	     85.25808431	  -2976.39950751	    139.61008089	    159.40617848	     13.29363966	     48.22013304	      5.45276778	    -22.35342755
      6.82000000	    -40.61339734	     -7.13263011	      5.19887233	   -173.01119306	    880.55982180	    -10.20439851	      9.68831556	    -45.00000000	     36.72327090	    -45.00000000	    -39.32069409	   1701.20601138	  -2088.27569580	     31.12157439	     83.49390102	   1456.50630431	   -305.42395292	     17.70814409	      4.31916512	     14.25933965	     38.19582135	    -38.68505357	    -45.00000000	    -45.00000000	     85.20110758	  -2975.81450826	    139.52945832	    160.23659327	     13.43860191	     48.55997474	      5.26772394	    -22.38370412
      6.83000000	    -40.69320963	     -6.50679722	      4.60966027	   -171.05884602	    883.11161371	    -10.01071191	      9.81782746	    -45.00000000	     37.27699493	    -45.00000000	    -37.89834217	   1700.95099237	  -2088.28524010	     31.37374042	     83.26086638	   1456.79316442	   -303.57393737	     17.79918914	      4.27794410	     15.49174016	     38.45441158	    -39.43490890	    -45.00000000	    -45.00000000	     85.57662793	  -2975.74953678	    139.14482267	    160.84671653	     13.42904734	     49.04231791	      5.22015035	    -22.35461198
      6.84000000	    -40.69004340	     -6.45072653	      4.56613076	   -168.96727678	    885.56160946	     -9.82870824	      9.84518408	    -45.00000000	     37.64381130	    -45.00000000	    -36.99231978	   1700.88601895	  -2087.94778321	     31.43315480	     83.10846887	   1457.02358947	   -301.89491146	     17.66930665	      4.04944694	     14.86338772	     38.45037712	    -39.61842656	    -45.00000000	    -45.00000000	     85.61257230	  -2975.39889235	    139.06899973	    161.43555976	     13.60709322	     49.43734950	      5.09020677	    -22.38763774
      6.85000000	    -40.76185186	     -6.00848982	      4.15110862	   -166.75181055	    887.89485748	     -9.65492135	      9.79273112	    -45.00000000	     38.17609316	    -45.00000000	    -35.29301542	   1700.73138036	  -2087.91995719	     31.41368267	     82.94135411	   1457.16497758	   -299.84826603	     17.68952218	      3.99621340	     15.60806626	     38.61203464	    -40.20722585	    -45.00000000	    -45.00000000	     86.01373701	  -2975.25550616	    138.69712875	    162.09231594	     13.64722290	     49.89396293	      4.92893107	    -22.27988644
      6.86000000	    -40.77940423	     -5.69583879	      3.81047254	   -164.41786058	    890.09444342	     -9.49356168	      9.76842404	    -45.00000000	     38.56255242	    -45.00000000	    -34.09371842	   1700.68587095	  -2087.73833833	     31.53422138	     82.69672940	   1457.43095203	   -298.00356082	     17.55108208	      3.79738763	     15.30357954	     38.70807066	    -40.42175594	    -45.00000000	    -44.33060513	     86.17928963	  -2975.10657077	    138.58281634	    162.50939065	     13.69919270	     50.31620480	      4.90571647	    -22.35161009
